<?xml version="1.0" encoding="UTF-8"?>
<svg id="Layer_2" data-name="Layer 2" xmlns="http://www.w3.org/2000/svg" viewBox="0 0 1096.11 226.63">
  <defs>
    <style>
      .cls-1 {
        fill: #11100d;
      }
    </style>
  </defs>
  <g id="Capa_1" data-name="Capa 1">
    <g>
      <path class="cls-1" d="M34.87,4.04v185.55h114.87v32.37H0V4.04h34.87Z"/>
      <path class="cls-1" d="M453.05,4.37v127.31c0,64.12-42.34,96.2-94.95,94.33-48.56-1.25-89.97-32.38-89.97-94.33V4.37h34.55v127.31c0,39.53,23.03,61.02,55.41,62.26,34.87,1.86,60.4-20.85,60.4-62.26V4.37h34.56Z"/>
      <path class="cls-1" d="M730.22,4.04h38.3v1.55l-73.78,105.84,76.9,109.6v.93h-39.53l-59.17-86.24-59.45,86.24h-39.55v-.93l76.58-109.6L577.07,5.6v-1.55h38.28l57.6,84.37,57.28-84.37Z"/>
      <path class="cls-1" d="M1096.11,113.93c0,58.84-35.79,112.7-111.45,112.7s-111.46-55.1-111.46-112.38c0-66.32,46.4-114.25,112.09-114.25,74.39.3,110.81,55.08,110.81,113.93ZM984.66,194.55c54.17,0,76.9-38.28,76.9-79.98s-23.04-81.89-76.26-82.83c-50.43,0-77.52,35.18-77.52,82.83.6,38.6,23.03,79.98,76.88,79.98Z"/>
    </g>
  </g>
</svg>