<?xml version="1.0" encoding="UTF-8"?>
<svg id="Capa_1" data-name="Capa 1" xmlns="http://www.w3.org/2000/svg" viewBox="0 0 600 600">
  <path d="M432.42,284.42h-38.95v-54.53c0-30.07-24.46-54.53-54.53-54.53h-23.37c0-34.37-27.95-62.31-62.31-62.31s-62.31,27.95-62.31,62.31h-23.37c-30.07,0-54.53,24.46-54.53,54.53v93.47c0,38.65,31.45,70.1,70.1,70.1h38.95v23.37c0,38.65,31.45,70.1,70.1,70.1h124.63c38.65,0,70.1-31.45,70.1-70.1v-77.89c0-30.07-24.46-54.53-54.53-54.53ZM253.26,128.63c25.77,0,46.74,20.97,46.74,46.74h-93.47c0-25.77,20.97-46.74,46.74-46.74ZM183.16,377.89c-30.07,0-54.53-24.46-54.53-54.53v-93.47c0-21.48,17.48-38.95,38.95-38.95h23.37v38.95c0,4.3,3.49,7.79,7.79,7.79s7.79-3.49,7.79-7.79v-38.95h93.47v38.95c0,4.3,3.49,7.79,7.79,7.79s7.79-3.49,7.79-7.79v-38.95h23.37c21.47,0,38.95,17.46,38.95,38.95v54.53h-101.26c-30.07,0-54.53,24.46-54.53,54.53v38.95h-38.95ZM471.37,416.84c0,30.07-24.46,54.53-54.53,54.53h-124.63c-30.07,0-54.53-24.46-54.53-54.53v-77.89c0-21.48,17.48-38.95,38.95-38.95h155.79c21.47,0,38.95,17.46,38.95,38.95v77.89ZM409.05,338.95v31.16c0,30.07-24.46,54.53-54.53,54.53s-54.53-24.46-54.53-54.53v-31.16c0-4.3,3.49-7.79,7.79-7.79s7.79,3.49,7.79,7.79v31.16c0,21.48,17.48,38.95,38.95,38.95s38.95-17.46,38.95-38.95v-31.16c0-4.3,3.49-7.79,7.79-7.79s7.79,3.49,7.79,7.79Z"/>
</svg>