<?xml version="1.0" encoding="UTF-8"?>
<svg id="Capa_1" data-name="Capa 1" xmlns="http://www.w3.org/2000/svg" viewBox="0 0 600 600">
  <path d="M463.09,196.99H171.24c-19.67,0-38.13-9.73-49.31-25.73,10.88-15.57,28.93-25.77,49.31-25.77h326.19c4.74,0,8.58-3.85,8.58-8.58s-3.85-8.58-8.58-8.58H171.24c-42.66,0-77.26,34.59-77.26,77.26v188.85c0,42.66,34.59,77.26,77.26,77.26h291.85c23.71,0,42.92-19.21,42.92-42.92v-188.85c0-23.71-19.21-42.92-42.92-42.92ZM488.85,428.76c0,14.2-11.55,25.75-25.75,25.75H171.24c-33.13,0-60.09-26.95-60.09-60.09v-188.85c0-5.97.88-11.74,2.51-17.19,14.52,16.17,35.43,25.77,57.58,25.77h291.85c14.2,0,25.75,11.55,25.75,25.75v188.85ZM454.51,334.34c0,9.48-7.69,17.17-17.17,17.17s-17.17-7.69-17.17-17.17,7.69-17.17,17.17-17.17,17.17,7.69,17.17,17.17Z"/>
</svg>