<?xml version="1.0" encoding="UTF-8"?>
<svg id="Capa_1" data-name="Capa 1" xmlns="http://www.w3.org/2000/svg" viewBox="0 0 600 600">
  <defs>
    <style>
      .cls-1 {
        stroke: #000;
        stroke-miterlimit: 10;
      }
    </style>
  </defs>
  <path class="cls-1" d="M485.84,308.08c-4.26,99.78-85.9,177.93-185.84,177.93-73.86,0-140.5-43.9-170.07-110.61-.11.71-.43,1.36-.43,2.11v54.25c0,4.28-3.47,7.75-7.75,7.75s-7.75-3.47-7.75-7.75v-54.25c0-17.1,13.9-31,31-31h54.25c4.28,0,7.75,3.47,7.75,7.75s-3.47,7.75-7.75,7.75h-54.25c-1.22,0-2.31.43-3.46.7,25.62,64.71,88.45,107.81,158.46,107.81,91.61,0,166.43-71.63,170.34-163.08.19-4.26,3.08-7.64,8.08-7.42,4.26.2,7.6,3.8,7.42,8.08ZM478.26,160.49c-4.28,0-7.75,3.47-7.75,7.75v54.25c0,.74-.33,1.38-.42,2.08-29.59-66.68-96.21-110.58-170.09-110.58-99.93,0-181.56,78.15-185.84,177.93-.19,4.28,3.13,7.89,7.41,8.08h.34c4.12,0,7.56-3.26,7.73-7.42,3.92-91.45,78.74-163.08,170.35-163.08,70.03,0,132.87,43.09,158.46,107.81-1.15.26-2.23.7-3.46.7h-54.25c-4.28,0-7.75,3.47-7.75,7.75s3.47,7.75,7.75,7.75h54.25c17.1,0,31-13.9,31-31v-54.25c0-4.28-3.47-7.75-7.75-7.75ZM261.25,377.5c-21.36,0-38.75-17.38-38.75-38.75v-77.5c0-21.38,17.39-38.75,38.75-38.75h77.5c21.38,0,38.75,17.38,38.75,38.75v77.5c0,21.38-17.38,38.75-38.75,38.75h-77.5ZM261.25,362h77.5c12.82,0,23.25-10.43,23.25-23.25v-77.5c0-12.82-10.43-23.25-23.25-23.25h-77.5c-12.82,0-23.25,10.43-23.25,23.25v77.5c0,12.82,10.43,23.25,23.25,23.25ZM284.5,284.5h31c4.28,0,7.75-3.47,7.75-7.75s-3.47-7.75-7.75-7.75h-31c-4.28,0-7.75,3.47-7.75,7.75s3.47,7.75,7.75,7.75Z"/>
</svg>