<?xml version="1.0" encoding="UTF-8"?>
<svg xmlns="http://www.w3.org/2000/svg" id="Layer_1" data-name="Layer 1" viewBox="0 0 24 24">
  <path d="M20.605,7.409c-.217-.986-.996-1.761-1.985-1.974-.774-.167-1.55-.303-2.327-.411-.033-.526-.072-1.044-.118-1.528-.114-1.207-1.037-2.171-2.243-2.345-1.391-.2-2.474-.2-3.864,0-1.206,.174-2.128,1.139-2.243,2.345-.046,.483-.085,1.002-.118,1.528-.777,.108-1.553,.245-2.327,.411-.989,.213-1.769,.988-1.986,1.974-.958,4.342-.958,8.563,0,12.905,.217,.986,.997,1.761,1.986,1.974,2.197,.473,4.409,.709,6.62,.709s4.424-.236,6.62-.709c.989-.213,1.769-.989,1.985-1.974,.959-4.342,.959-8.563,0-12.905ZM8.82,3.59c.07-.734,.655-1.344,1.39-1.45,1.304-.188,2.274-.189,3.579,0,.736,.106,1.32,.715,1.39,1.45,.04,.416,.074,.859,.104,1.309-2.186-.232-4.38-.232-6.566,0,.03-.45,.064-.893,.104-1.309Zm10.809,16.508c-.131,.596-.621,1.083-1.22,1.212-4.252,.916-8.566,.916-12.818,0-.599-.129-1.089-.616-1.22-1.212-.926-4.196-.926-8.277,0-12.474,.131-.596,.622-1.083,1.22-1.212,.685-.148,1.372-.271,2.061-.371-.061,1.3-.079,2.526-.053,3.235,.01,.276,.243,.502,.518,.481,.276-.01,.491-.242,.481-.518-.026-.721-.005-1.994,.061-3.327,1.112-.124,2.227-.186,3.342-.186s2.229,.062,3.341,.186c.066,1.333,.088,2.606,.061,3.327-.01,.276,.206,.508,.481,.518,.007,0,.013,0,.019,0,.268,0,.489-.212,.5-.481,.026-.71,.007-1.936-.054-3.235,.688,.1,1.375,.223,2.061,.371,.599,.129,1.089,.616,1.22,1.212,.927,4.197,.927,8.277,0,12.474Z"/>
</svg>
