<?xml version="1.0" encoding="UTF-8"?>
<svg id="Capa_1" data-name="Capa 1" xmlns="http://www.w3.org/2000/svg" viewBox="0 0 600 600">
  <path d="M438.77,133.94c-21.45-11.51-44.01-17.36-67.07-17.36h-143.39c-23.07,0-45.63,5.84-67.07,17.36-27.54,14.8-44.66,44.08-44.66,76.43v21.22c0,29.5,24,53.5,53.5,53.5h7.64v129.56c0,37.92,30.86,68.78,68.78,68.78h107c37.92,0,68.78-30.86,68.78-68.78v-129.92h7.64c29.5,0,53.5-24,53.5-53.5v-20.85c0-32.34-17.12-61.63-44.65-76.43ZM352.95,131.86c-3.71,25.89-26.05,45.86-52.95,45.86s-49.23-19.96-52.95-45.86h105.9ZM468.14,231.22c0,21.06-17.15,38.21-38.21,38.21h-7.64v-45.86c0-4.22-3.42-7.64-7.64-7.64s-7.64,3.42-7.64,7.64v191.07c0,29.5-24,53.5-53.5,53.5h-107c-29.5,0-53.5-24-53.5-53.5v-191.07c0-4.22-3.42-7.64-7.64-7.64s-7.64,3.42-7.64,7.64v46.22h-7.64c-21.06,0-38.21-17.15-38.21-38.21v-21.22c0-26.72,14.02-50.84,36.61-62.96,19.2-10.3,39.33-15.55,59.84-15.55h3.33c3.82,34.35,33.02,61.14,68.36,61.14s64.55-26.8,68.36-61.14h3.33c20.51,0,40.64,5.23,59.84,15.55,22.58,12.12,36.61,36.26,36.61,62.96v20.85Z"/>
</svg>