<?xml version="1.0" encoding="UTF-8"?>
<svg id="Capa_1" data-name="Capa 1" xmlns="http://www.w3.org/2000/svg" viewBox="0 0 600 600">
  <path d="M426.83,198.55h-42.27v-8.45c0-41.95-34.14-76.09-76.09-76.09h-135.27c-41.95,0-76.09,34.14-76.09,76.09v169.09c0,25.35,16.1,46.85,38.55,55.26-3.03,6.54-4.73,13.56-4.73,20.83,0,27.97,22.76,50.73,50.73,50.73s50.73-22.76,50.73-50.73c0-5.83-1.08-11.5-3.04-16.91h141.34c-1.96,5.41-3.04,11.08-3.04,16.91,0,27.97,22.76,50.73,50.73,50.73s50.73-22.76,50.73-50.73c0-7.27-1.71-14.29-4.73-20.83,22.45-8.42,38.55-29.91,38.55-55.26v-84.54c0-41.95-34.14-76.09-76.09-76.09h.02ZM426.83,215.46c32.63,0,59.18,26.55,59.18,59.18v25.36h-101.45v-84.54h42.27ZM114.01,359.18v-169.09c0-32.63,26.55-59.18,59.18-59.18h135.27c32.63,0,59.18,26.55,59.18,59.18v211.36h-211.36c-23.32,0-42.27-18.95-42.27-42.27ZM215.46,435.27c0,18.65-15.17,33.82-33.82,33.82s-33.82-15.17-33.82-33.82c0-6.12,2.06-11.92,5.31-17.23,1.07.05,2.06.32,3.15.32h54.04c3.13,5.22,5.14,10.91,5.14,16.91ZM452.19,435.27c0,18.65-15.17,33.82-33.82,33.82s-33.82-15.17-33.82-33.82c0-6,2.01-11.68,5.14-16.91h54.04c1.08,0,2.08-.25,3.15-.32,3.25,5.31,5.31,11.11,5.31,17.23ZM443.73,401.45h-59.18v-84.54h101.45v42.27c0,23.32-18.95,42.27-42.27,42.27Z"/>
</svg>