<?xml version="1.0" encoding="UTF-8"?>
<svg id="Capa_1" data-name="Capa 1" xmlns="http://www.w3.org/2000/svg" viewBox="0 0 600 600">
  <path d="M276.79,194.16c-13.74-7.38-28.19-11.11-42.95-11.11h-90.14c-14.78,0-29.23,3.74-42.95,11.11-17.85,9.59-28.95,28.56-28.95,49.5v13.33c0,19.46,15.83,35.29,35.29,35.29h3.14v79.78c0,24.76,20.14,44.9,44.9,44.9h67.26c24.75,0,44.89-20.14,44.89-44.9v-80.01h3.14c19.46,0,35.29-15.83,35.29-35.29v-13.1c0-20.94-11.09-39.91-28.94-49.5ZM188.76,221.47c-15.15,0-28.28-10.83-31.3-25.5h62.61c-3.02,14.66-16.15,25.5-31.31,25.5ZM260.83,245.49c-3.56,0-6.46,2.9-6.46,6.47v120.1c0,17.63-14.34,31.97-31.96,31.97h-67.26c-17.63,0-31.96-14.34-31.96-31.97v-120.1c0-3.57-2.9-6.47-6.47-6.47s-6.46,2.9-6.46,6.47v27.39h-3.14c-12.33,0-22.36-10.03-22.36-22.36v-13.33c0-16.18,8.48-30.79,22.14-38.11,11.84-6.35,24.23-9.57,36.83-9.57h.64c3.18,22.01,22.02,38.43,44.43,38.43s41.27-16.42,44.43-38.43h.64c12.62,0,25.01,3.22,36.83,9.57,13.65,7.33,22.13,21.94,22.13,38.11v13.1c0,12.33-10.03,22.36-22.36,22.36h-3.14v-27.16c0-3.57-2.9-6.47-6.46-6.47Z"/>
  <path d="M528.19,447.58V152.42c0-21.42-17.41-38.84-38.84-38.84h-116.51v372.84h116.51c21.42,0,38.84-17.41,38.84-38.84ZM388.38,470.88v-46.6h62.14v-15.53h-62.14v-62.14h62.14v-15.53h-62.14v-62.14h62.14v-15.53h-62.14v-62.14h62.14v-15.53h-62.14v-46.6h100.98c12.85,0,23.3,10.45,23.3,23.3v295.16c0,12.85-10.45,23.3-23.3,23.3h-100.98Z"/>
</svg>