<?xml version="1.0" encoding="UTF-8"?>
<svg id="Capa_1" data-name="Capa 1" xmlns="http://www.w3.org/2000/svg" viewBox="0 0 600 600">
  <defs>
    <style>
      .cls-1 {
        stroke: #000;
        stroke-miterlimit: 10;
      }
    </style>
  </defs>
  <path class="cls-1" d="M480.69,469.91h.02l-98.31-98.31c24.5-27.06,39.57-62.8,39.57-102.09-.01-84.05-68.4-152.44-152.45-152.44s-152.44,68.38-152.44,152.44,68.38,152.44,152.44,152.44c39.28,0,75.03-15.08,102.09-39.57l98.31,98.31c2.97,2.97,7.8,2.97,10.78,0,2.97-2.97,2.97-7.8,0-10.78ZM269.52,406.71c-75.65,0-137.19-61.54-137.19-137.19s61.55-137.19,137.19-137.19,137.19,61.54,137.19,137.19-61.54,137.19-137.19,137.19Z"/>
</svg>