<?xml version="1.0" encoding="UTF-8"?>
<svg id="Capa_1" data-name="Capa 1" xmlns="http://www.w3.org/2000/svg" viewBox="0 0 600 600">
  <defs>
    <style>
      .cls-1 {
        stroke: #000;
        stroke-miterlimit: 10;
      }
    </style>
  </defs>
  <path class="cls-1" d="M300,300c53.19,0,96.44-43.25,96.44-96.44s-43.25-96.44-96.44-96.44-96.44,43.25-96.44,96.44,43.25,96.44,96.44,96.44ZM300,123.2c44.31,0,80.37,36.05,80.37,80.37s-36.05,80.37-80.37,80.37-80.37-36.05-80.37-80.37,36.05-80.37,80.37-80.37Z"/>
  <path class="cls-1" d="M300,332.15c-70.9,0-128.58,57.69-128.58,128.58v24.11c0,4.44,3.6,8.04,8.04,8.04s8.04-3.6,8.04-8.04v-24.11c0-62.03,50.47-112.51,112.51-112.51s112.51,50.49,112.51,112.51v24.11c0,4.44,3.6,8.04,8.04,8.04s8.04-3.6,8.04-8.04v-24.11c0-70.9-57.69-128.58-128.59-128.58Z"/>
</svg>