<svg xmlns="http://www.w3.org/2000/svg" xmlns:xlink="http://www.w3.org/1999/xlink" width="1000" zoomAndPan="magnify" viewBox="0 0 750 749.999995" height="1000" preserveAspectRatio="xMidYMid meet" version="1.0"><defs><clipPath id="1cfaa52a66"><path d="M 304.089844 225 L 445.839844 225 L 445.839844 525 L 304.089844 525 Z M 304.089844 225 " clip-rule="nonzero"/></clipPath></defs><g clip-path="url(#1cfaa52a66)"><path fill="#000000" d="M 413.183594 274.714844 L 445.898438 274.714844 L 445.898438 225.390625 L 404.125 225.390625 L 404.125 225.578125 C 349.199219 227.59375 337.875 258.355469 336.933594 290.882812 L 336.804688 290.882812 L 336.804688 325.109375 L 304.089844 325.109375 L 304.089844 374.496094 L 336.804688 374.496094 L 336.804688 524.609375 L 395.503906 524.609375 L 395.503906 374.496094 L 437.59375 374.496094 L 445.898438 325.109375 L 395.503906 325.109375 L 395.503906 294.46875 C 395.503906 283.585938 402.804688 274.714844 413.183594 274.714844 Z M 413.183594 274.714844 " fill-opacity="1" fill-rule="nonzero"/></g></svg>