<?xml version="1.0" encoding="UTF-8"?>
<svg id="Capa_1" data-name="Capa 1" xmlns="http://www.w3.org/2000/svg" viewBox="0 0 600 600">
  <path d="M300,161.42c45.13,0,50.48.17,68.3.99,18.42.85,37.4,5.04,50.82,18.47,13.55,13.55,17.62,32.34,18.47,50.82.82,17.82.99,23.17.99,68.3s-.17,50.48-.99,68.3c-.83,18.33-5.13,37.48-18.47,50.82-13.55,13.55-32.33,17.62-50.82,18.47-17.82.82-23.17.99-68.3.99s-50.48-.17-68.3-.99c-18.19-.83-37.6-5.23-50.82-18.47-13.48-13.48-17.62-32.45-18.47-50.82-.82-17.82-.99-23.17-.99-68.3s.17-50.48.99-68.3c.83-18.26,5.17-37.53,18.47-50.82,13.52-13.52,32.38-17.62,50.82-18.47,17.82-.82,23.17-.99,68.3-.99M300,130.97c-45.91,0-51.67.2-69.7,1.01-26.13,1.2-52.08,8.47-70.97,27.36-18.96,18.96-26.16,44.85-27.36,70.97-.82,18.03-1.01,23.79-1.01,69.7s.2,51.67,1.01,69.7c1.2,26.1,8.49,52.12,27.36,70.97,18.95,18.95,44.88,26.16,70.97,27.36,18.03.82,23.79,1.01,69.7,1.01s51.67-.2,69.7-1.01c26.12-1.2,52.09-8.48,70.97-27.36,18.97-18.97,26.16-44.85,27.36-70.97.82-18.03,1.01-23.79,1.01-69.7s-.2-51.67-1.01-69.7c-1.2-26.13-8.48-52.09-27.36-70.97-18.92-18.92-44.92-26.17-70.97-27.36-18.03-.82-23.79-1.01-69.7-1.01Z"/>
  <path d="M300,213.2c-47.94,0-86.8,38.86-86.8,86.8s38.86,86.8,86.8,86.8,86.8-38.86,86.8-86.8-38.86-86.8-86.8-86.8ZM300,356.34c-31.12,0-56.34-25.23-56.34-56.34s25.23-56.34,56.34-56.34,56.34,25.23,56.34,56.34-25.23,56.34-56.34,56.34Z"/>
  <circle cx="390.24" cy="209.76" r="20.28"/>
</svg>