<?xml version="1.0" encoding="UTF-8"?>
<svg id="Capa_1" data-name="Capa 1" xmlns="http://www.w3.org/2000/svg" viewBox="0 0 600 600">
  <path d="M468.24,214.93c-4.04-15.2-15.93-27.19-31.05-31.25-27.38-7.37-137.19-7.37-137.19-7.37,0,0-109.82,0-137.21,7.37-15.1,4.07-27,16.04-31.04,31.25-7.35,27.57-7.35,85.07-7.35,85.07,0,0,0,57.5,7.35,85.07,4.04,15.2,15.93,27.19,31.05,31.25,27.38,7.37,137.19,7.37,137.19,7.37,0,0,109.82,0,137.21-7.37,15.1-4.07,27-16.04,31.05-31.25,7.33-27.57,7.33-85.07,7.33-85.07,0,0,0-57.5-7.35-85.07ZM264.09,352.22v-104.45l91.77,52.22-91.77,52.22Z"/>
</svg>